<svg xmlns="http://www.w3.org/2000/svg" viewBox="0 0 96 96" role="img" aria-labelledby="title desc">
  <title id="title">Freelink Rewards</title>
  <desc id="desc">Medaille stylisee pour le module evaluation et recompense.</desc>
  <rect width="96" height="96" rx="18" fill="#f7f3ea"/>
  <path d="M28 18h40v22c0 12.2-8.4 22.9-20 25.9C36.4 62.9 28 52.2 28 40V18Z" fill="#0f766e"/>
  <path d="M36 26h24v13.5c0 7.1-5 13.4-12 15.1-7-1.7-12-8-12-15.1V26Z" fill="#f59e0b"/>
  <path d="M48 31l3.4 6.9 7.6 1.1-5.5 5.4 1.3 7.5-6.8-3.6-6.8 3.6 1.3-7.5L37 39l7.6-1.1L48 31Z" fill="#ffffff"/>
  <path d="M40 64h16l6 18-14-8-14 8 6-18Z" fill="#e11d48"/>
</svg>
